<svg width="680" height="220" viewBox="0 0 680 220" xmlns="http://www.w3.org/2000/svg" font-family="sans-serif" color="#444441">
  <style>
    .c-teal rect { fill: #E1F5EE; stroke: #0F6E56; }
    .c-teal path { stroke: #0F6E56; }
    .c-teal text { fill: #085041; font-size: 11px; }
    .ts { font-size: 11px; }
  </style>
  <line x1="60" y1="120" x2="640" y2="120" stroke="#888780" stroke-width="2"/>
  
  <g class="c-teal">
    <circle cx="60" cy="120" r="5" stroke-width="0.5"/>
    <rect x="5" y="34" width="110" height="56" rx="10" stroke-width="0.5"/>
    <path d="M54 90 L66 90 L60 100 Z" stroke-width="0.5"/>
    <g transform="translate(51.6, 42) scale(0.7)"><path d="M14.314 0L2.3 12 6 15.7 21.684.013h-7.357zm.014 11.072L7.857 17.53l6.47 6.47H21.7l-6.46-6.468 6.46-6.46h-7.37z" fill="currentColor"/></g>
    <text class="ts" x="60" y="82" text-anchor="middle">코코의 숲</text>
  </g>

  <g class="c-teal">
    <circle cx="282.9" cy="120" r="5" stroke-width="0.5"/>
    <rect x="227.89999999999998" y="34" width="110" height="56" rx="10" stroke-width="0.5"/>
    <path d="M276.9 90 L288.9 90 L282.9 100 Z" stroke-width="0.5"/>
    <g transform="translate(274.5, 42) scale(0.7)"><path d="M14.23 12.004a2.236 2.236 0 0 1-2.235 2.236 2.236 2.236 0 0 1-2.236-2.236 2.236 2.236 0 0 1 2.235-2.236 2.236 2.236 0 0 1 2.236 2.236zm2.648-10.69c-1.346 0-3.107.96-4.888 2.622-1.78-1.653-3.542-2.602-4.887-2.602-.41 0-.783.093-1.106.278-1.375.793-1.683 3.264-.973 6.365C1.98 8.917 0 10.42 0 12.004c0 1.59 1.99 3.097 5.043 4.03-.704 3.113-.39 5.588.988 6.38.32.187.69.275 1.102.275 1.345 0 3.107-.96 4.888-2.624 1.78 1.654 3.542 2.603 4.887 2.603.41 0 .783-.09 1.106-.275 1.374-.792 1.683-3.263.973-6.365C22.02 15.096 24 13.59 24 12.004c0-1.59-1.99-3.097-5.043-4.032.704-3.11.39-5.587-.988-6.38-.318-.184-.688-.277-1.092-.278zm-.005 1.09v.006c.225 0 .406.044.558.127.666.382.955 1.835.73 3.704-.054.46-.142.945-.25 1.44-.96-.236-2.006-.417-3.107-.534-.66-.905-1.345-1.727-2.035-2.447 1.592-1.48 3.087-2.292 4.105-2.295zm-9.77.02c1.012 0 2.514.808 4.11 2.28-.686.72-1.37 1.537-2.02 2.442-1.107.117-2.154.298-3.113.538-.112-.49-.195-.964-.254-1.42-.23-1.868.054-3.32.714-3.707.19-.09.4-.127.563-.132zm4.882 3.05c.455.468.91.992 1.36 1.564-.44-.02-.89-.034-1.345-.034-.46 0-.915.01-1.36.034.44-.572.895-1.096 1.345-1.565zM12 8.1c.74 0 1.477.034 2.202.093.406.582.802 1.203 1.183 1.86.372.64.71 1.29 1.018 1.946-.308.655-.646 1.31-1.013 1.95-.38.66-.773 1.288-1.18 1.87-.728.063-1.466.098-2.21.098-.74 0-1.477-.035-2.202-.093-.406-.582-.802-1.204-1.183-1.86-.372-.64-.71-1.29-1.018-1.946.303-.657.646-1.313 1.013-1.954.38-.66.773-1.286 1.18-1.868.728-.064 1.466-.098 2.21-.098zm-3.635.254c-.24.377-.48.763-.704 1.16-.225.39-.435.782-.635 1.174-.265-.656-.49-1.31-.676-1.947.64-.15 1.315-.283 2.015-.386zm7.26 0c.695.103 1.365.23 2.006.387-.18.632-.405 1.282-.66 1.933-.2-.39-.41-.783-.64-1.174-.225-.392-.465-.774-.705-1.146zm3.063.675c.484.15.944.317 1.375.498 1.732.74 2.852 1.708 2.852 2.476-.005.768-1.125 1.74-2.857 2.475-.42.18-.88.342-1.355.493-.28-.958-.646-1.956-1.1-2.98.45-1.017.81-2.01 1.085-2.964zm-13.395.004c.278.96.645 1.957 1.1 2.98-.45 1.017-.812 2.01-1.086 2.964-.484-.15-.944-.318-1.37-.5-1.732-.737-2.852-1.706-2.852-2.474 0-.768 1.12-1.742 2.852-2.476.42-.18.88-.342 1.356-.494zm11.678 4.28c.265.657.49 1.312.676 1.948-.64.157-1.316.29-2.016.39.24-.375.48-.762.705-1.158.225-.39.435-.788.636-1.18zm-9.945.02c.2.392.41.783.64 1.175.23.39.465.772.705 1.143-.695-.102-1.365-.23-2.006-.386.18-.63.406-1.282.66-1.933zM17.92 16.32c.112.493.2.968.254 1.423.23 1.868-.054 3.32-.714 3.708-.147.09-.338.128-.563.128-1.012 0-2.514-.807-4.11-2.28.686-.72 1.37-1.536 2.02-2.44 1.107-.118 2.154-.3 3.113-.54zm-11.83.01c.96.234 2.006.415 3.107.532.66.905 1.345 1.727 2.035 2.446-1.595 1.483-3.092 2.295-4.11 2.295-.22-.005-.406-.05-.553-.132-.666-.38-.955-1.834-.73-3.703.054-.46.142-.944.25-1.438zm4.56.64c.44.02.89.034 1.345.034.46 0 .915-.01 1.36-.034-.44.572-.895 1.095-1.345 1.565-.455-.47-.91-.993-1.36-1.565z" fill="currentColor"/></g>
    <text class="ts" x="282.9" y="82" text-anchor="middle">pawprint</text>
  </g>

  <g class="c-teal">
    <circle cx="439.7" cy="120" r="5" stroke-width="0.5"/>
    <rect x="384.7" y="34" width="110" height="56" rx="10" stroke-width="0.5"/>
    <path d="M433.7 90 L445.7 90 L439.7 100 Z" stroke-width="0.5"/>
    <g transform="translate(431.3, 42) scale(0.7)"><path d="M21.469 6.825c.84 1.537 1.318 3.3 1.318 5.175 0 3.979-2.156 7.456-5.363 9.325l3.295-9.527c.615-1.54.82-2.771.82-3.864 0-.405-.026-.78-.07-1.11m-7.981.105c.647-.03 1.232-.105 1.232-.105.582-.075.514-.93-.067-.899 0 0-1.755.135-2.88.135-1.064 0-2.85-.15-2.85-.15-.585-.03-.661.855-.075.885 0 0 .54.061 1.125.09l1.68 4.605-2.37 7.08L5.354 6.9c.649-.03 1.234-.1 1.234-.1.585-.075.516-.93-.065-.896 0 0-1.746.138-2.874.138-.2 0-.438-.008-.69-.015C4.911 3.15 8.235 1.215 12 1.215c2.809 0 5.365 1.072 7.286 2.833-.046-.003-.091-.009-.141-.009-1.06 0-1.812.923-1.812 1.914 0 .89.513 1.643 1.06 2.531.411.72.89 1.643.89 2.977 0 .915-.354 1.994-.821 3.479l-1.075 3.585-3.9-11.61.001.014zM12 22.784c-1.059 0-2.081-.153-3.048-.437l3.237-9.406 3.315 9.087c.024.053.05.101.078.149-1.12.393-2.325.609-3.582.609M1.211 12c0-1.564.336-3.05.935-4.39L7.29 21.709C3.694 19.96 1.212 16.271 1.211 12M12 0C5.385 0 0 5.385 0 12s5.385 12 12 12 12-5.385 12-12S18.615 0 12 0" fill="currentColor"/></g>
    <text class="ts" x="439.7" y="82" text-anchor="middle">클리닉 사이트</text>
  </g>

  <g class="c-teal">
    <circle cx="580" cy="120" r="5" stroke-width="0.5"/>
    <rect x="525" y="34" width="110" height="56" rx="10" stroke-width="0.5"/>
    <path d="M574 90 L586 90 L580 100 Z" stroke-width="0.5"/>
    <g transform="translate(571.6, 42) scale(0.7)"><path d="M14.314 0L2.3 12 6 15.7 21.684.013h-7.357zm.014 11.072L7.857 17.53l6.47 6.47H21.7l-6.46-6.468 6.46-6.46h-7.37z" fill="currentColor"/></g>
    <text class="ts" x="580" y="82" text-anchor="middle">Rin</text>
  </g>
  
  <g id="runner-body">
    <animateTransform attributeName="transform" type="translate"
      values="610,100; 610,94; 610,100"
      dur="0.5s" repeatCount="indefinite"/>
    <circle cx="0" cy="-22" r="8" fill="none" stroke="currentColor" stroke-width="1"/>
    <line x1="0" y1="-14" x2="0" y2="8" stroke="currentColor" stroke-width="2" stroke-linecap="round"/>
    <path stroke="currentColor" stroke-width="2" stroke-linecap="round" fill="none" d="M0 -8 L -10 14">
      <animate attributeName="d" dur="0.5s" repeatCount="indefinite"
        values="M0 -8 L -10 14; M0 -8 L 10 14; M0 -8 L -10 14"/>
    </path>
    <path stroke="currentColor" stroke-width="2" stroke-linecap="round" fill="none" d="M0 -8 L 10 14">
      <animate attributeName="d" dur="0.5s" repeatCount="indefinite"
        values="M0 -8 L 10 14; M0 -8 L -10 14; M0 -8 L 10 14"/>
    </path>
    <path stroke="currentColor" stroke-width="2" stroke-linecap="round" fill="none" d="M0 8 L -10 30">
      <animate attributeName="d" dur="0.5s" repeatCount="indefinite"
        values="M0 8 L -10 30; M0 8 L 10 30; M0 8 L -10 30"/>
    </path>
    <path stroke="currentColor" stroke-width="2" stroke-linecap="round" fill="none" d="M0 8 L 10 30">
      <animate attributeName="d" dur="0.5s" repeatCount="indefinite"
        values="M0 8 L 10 30; M0 8 L -10 30; M0 8 L 10 30"/>
    </path>
  </g>
</svg>